<svg data-v-423bf9ae="" xmlns="http://www.w3.org/2000/svg" viewBox="0 0 328.2547864506628 60" class="font"><!----><!----><!----><g data-v-423bf9ae="" id="9a325a10-fbb8-4143-bab5-4ba6f8e7ee58" fill="black" transform="matrix(5.6553754806518555,0,0,5.6553754806518555,-2.761409282684326,-0.22091272473335266)"><path d="M3.19 1.29L4.30 1.29C5.66 1.29 6.16 2.07 6.16 3.04C6.16 4.00 5.38 4.79 4.41 4.79L3.92 4.79L3.92 5.38L4.89 5.38C6.19 5.38 7.13 6.43 7.13 7.66C7.13 8.89 6.34 9.91 5.21 9.91L3.19 9.91ZM5.61 10.50C7.56 10.50 8.76 9.30 8.76 7.81C8.76 6.33 7.56 5.12 6.08 5.12L6.08 5.07C7.06 4.84 7.80 3.96 7.80 2.91C7.80 1.69 6.76 0.70 5.39 0.70L0.59 0.70L0.49 1.29L1.71 1.75L1.71 9.45L0.50 9.91L0.62 10.50ZM13.31 3.81C11.24 3.81 10.02 5.12 10.02 7.22C10.02 9.32 11.10 10.65 13.31 10.65C15.54 10.65 16.60 9.38 16.60 7.22C16.60 5.07 15.39 3.81 13.31 3.81ZM13.31 4.33C14.49 4.33 15.25 5.39 15.25 7.18C15.25 8.96 14.50 10.14 13.31 10.14C12.12 10.14 11.38 8.95 11.38 7.18C11.38 5.42 12.15 4.33 13.31 4.33ZM21.01 3.81C18.94 3.81 17.72 5.12 17.72 7.22C17.72 9.32 18.80 10.65 21.01 10.65C23.24 10.65 24.30 9.38 24.30 7.22C24.30 5.07 23.09 3.81 21.01 3.81ZM21.01 4.33C22.19 4.33 22.95 5.39 22.95 7.18C22.95 8.96 22.20 10.14 21.01 10.14C19.82 10.14 19.08 8.95 19.08 7.18C19.08 5.42 19.85 4.33 21.01 4.33ZM29.23 7.31L28.25 7.04C28.25 7.04 30.91 6.57 30.91 5.11C30.91 4.41 30.49 3.81 29.26 3.81C28.38 3.81 27.33 4.52 26.96 5.59L27.23 4.47L27.23 0.70C27.23 0.70 27.24 0.04 26.47 0.04C26.01 0.04 25.40 0.14 25.07 0.20L25.07 0.70L25.91 0.70L25.91 10.50L27.23 10.50L27.23 7.25C27.23 5.18 28.46 4.33 29.06 4.33C29.54 4.33 29.89 4.56 29.89 5.14C29.89 6.08 28.10 6.72 27.66 6.86L27.66 7.36L29.51 10.00C29.88 10.53 30.41 10.65 30.86 10.65C31.33 10.65 31.72 10.50 31.72 10.50L31.72 10.00C31.72 10.00 31.12 10.00 30.91 9.70ZM32.45 0.70L32.35 1.29L33.57 1.75L33.57 9.45L32.35 9.91L32.45 10.50L39.48 10.50L39.48 7.91L38.89 7.81L38.08 9.91L35.06 9.91L35.06 1.75L36.27 1.29L36.18 0.70ZM41.64 0.74C41.22 0.74 40.88 1.08 40.88 1.50C40.88 1.92 41.22 2.25 41.64 2.25C42.04 2.25 42.39 1.92 42.39 1.50C42.39 1.08 42.04 0.74 41.64 0.74ZM42.34 4.47C42.34 4.47 42.35 3.81 41.58 3.81C41.12 3.81 40.50 3.91 40.18 3.96L40.18 4.47L41.02 4.47L41.02 10.50L42.34 10.50ZM46.16 4.47C46.16 4.47 46.17 3.81 45.40 3.81C44.94 3.81 44.32 3.91 44.00 3.96L44.00 4.47L44.84 4.47L44.84 10.50L46.16 10.50L46.16 7.39C46.16 5.32 47.19 4.47 47.91 4.47C48.61 4.47 49.04 5.05 49.04 5.95L49.04 9.38C49.04 10.36 49.73 10.65 50.25 10.65C50.62 10.65 50.99 10.60 51.18 10.50L51.18 10.00C50.75 10.00 50.36 9.79 50.36 9.35L50.36 6.30C50.36 4.76 49.71 3.81 48.19 3.81C47.46 3.81 46.51 4.45 46.16 5.43ZM56.04 7.31L55.06 7.04C55.06 7.04 57.72 6.57 57.72 5.11C57.72 4.41 57.30 3.81 56.07 3.81C55.19 3.81 54.14 4.52 53.77 5.59L54.04 4.47L54.04 0.70C54.04 0.70 54.05 0.04 53.28 0.04C52.82 0.04 52.21 0.14 51.88 0.20L51.88 0.70L52.72 0.70L52.72 10.50L54.04 10.50L54.04 7.25C54.04 5.18 55.27 4.33 55.87 4.33C56.35 4.33 56.70 4.56 56.70 5.14C56.70 6.08 54.91 6.72 54.47 6.86L54.47 7.36L56.32 10.00C56.69 10.53 57.22 10.65 57.67 10.65C58.14 10.65 58.53 10.50 58.53 10.50L58.53 10.00C58.53 10.00 57.93 10.00 57.72 9.70Z"></path></g><!----><!----></svg>